<svg xmlns="http://www.w3.org/2000/svg" width="2016" height="2000" fill="none"><path fill="#D387FF" fill-opacity=".05" d="M16 0h1v2000h-1z"/><path fill="#D387FF" fill-opacity=".05" d="M2000.5 15.5v1H.5v-1z"/><path fill="#D387FF" fill-opacity=".05" d="M57 0h1v2000h-1z"/><path fill="#D387FF" fill-opacity=".05" d="M2000.5 56.5v1H.5v-1z"/><path fill="#D387FF" fill-opacity=".05" d="M98 0h1v2000h-1z"/><path fill="#D387FF" fill-opacity=".05" d="M2000.5 97.5v1H.5v-1z"/><path fill="#D387FF" fill-opacity=".05" d="M139 0h1v2000h-1z"/><path fill="#D387FF" fill-opacity=".05" d="M2000.5 138.5v1H.5v-1z"/><path fill="#D387FF" fill-opacity=".05" d="M180 0h1v2000h-1z"/><path fill="#D387FF" fill-opacity=".05" d="M2000.5 179.5v1H.5v-1z"/><path fill="#D387FF" fill-opacity=".05" d="M221 0h1v2000h-1z"/><path fill="#D387FF" fill-opacity=".05" d="M2000.5 220.5v1H.5v-1z"/><path fill="#D387FF" fill-opacity=".05" d="M262 0h1v2000h-1z"/><path fill="#D387FF" fill-opacity=".05" d="M2000.5 261.5v1H.5v-1z"/><path fill="#D387FF" fill-opacity=".05" d="M303 0h1v2000h-1z"/><path fill="#D387FF" fill-opacity=".05" d="M2000.5 302.5v1H.5v-1z"/><path fill="#D387FF" fill-opacity=".05" d="M344 0h1v2000h-1z"/><path fill="#D387FF" fill-opacity=".05" d="M2000.5 343.5v1H.5v-1z"/><path fill="#D387FF" fill-opacity=".05" d="M385 0h1v2000h-1z"/><path fill="#D387FF" fill-opacity=".05" d="M2000.5 384.5v1H.5v-1z"/><path fill="#D387FF" fill-opacity=".05" d="M426 0h1v2000h-1z"/><path fill="#D387FF" fill-opacity=".05" d="M2000.5 425.5v1H.5v-1z"/><path fill="#D387FF" fill-opacity=".05" d="M467 0h1v2000h-1z"/><path fill="#D387FF" fill-opacity=".05" d="M2000.5 466.5v1H.5v-1z"/><path fill="#D387FF" fill-opacity=".05" d="M508 0h1v2000h-1z"/><path fill="#D387FF" fill-opacity=".05" d="M2000.5 507.5v1H.5v-1z"/><path fill="#D387FF" fill-opacity=".05" d="M549 0h1v2000h-1z"/><path fill="#D387FF" fill-opacity=".05" d="M2000.5 548.5v1H.5v-1z"/><path fill="#D387FF" fill-opacity=".05" d="M590 0h1v2000h-1z"/><path fill="#D387FF" fill-opacity=".05" d="M2000.5 589.5v1H.5v-1z"/><path fill="#D387FF" fill-opacity=".05" d="M631 0h1v2000h-1z"/><path fill="#D387FF" fill-opacity=".05" d="M2000.5 630.5v1H.5v-1z"/><path fill="#D387FF" fill-opacity=".05" d="M672 0h1v2000h-1z"/><path fill="#D387FF" fill-opacity=".05" d="M2000.5 671.5v1H.5v-1z"/><path fill="#D387FF" fill-opacity=".05" d="M713 0h1v2000h-1z"/><path fill="#D387FF" fill-opacity=".05" d="M2000.5 712.5v1H.5v-1z"/><path fill="#D387FF" fill-opacity=".05" d="M754 0h1v2000h-1z"/><path fill="#D387FF" fill-opacity=".05" d="M2000.5 753.5v1H.5v-1z"/><path fill="#D387FF" fill-opacity=".05" d="M795 0h1v2000h-1z"/><path fill="#D387FF" fill-opacity=".05" d="M2000.5 794.5v1H.5v-1z"/><path fill="#D387FF" fill-opacity=".05" d="M836 0h1v2000h-1z"/><path fill="#D387FF" fill-opacity=".05" d="M2000.5 835.5v1H.5v-1z"/><path fill="#D387FF" fill-opacity=".05" d="M877 0h1v2000h-1z"/><path fill="#D387FF" fill-opacity=".05" d="M2000.5 876.5v1H.5v-1z"/><path fill="#D387FF" fill-opacity=".05" d="M918 0h1v2000h-1z"/><path fill="#D387FF" fill-opacity=".05" d="M2000.5 917.5v1H.5v-1z"/><path fill="#D387FF" fill-opacity=".05" d="M959 0h1v2000h-1z"/><path fill="#D387FF" fill-opacity=".05" d="M2000.5 958.5v1H.5v-1z"/><path fill="#D387FF" fill-opacity=".05" d="M1000 0h1v2000h-1z"/><path fill="#D387FF" fill-opacity=".05" d="M2000.5 999.5v1H.5v-1z"/><path fill="#D387FF" fill-opacity=".05" d="M1041 0h1v2000h-1z"/><path fill="#D387FF" fill-opacity=".05" d="M2000.5 1040.5v1H.5v-1z"/><path fill="#D387FF" fill-opacity=".05" d="M1082 0h1v2000h-1z"/><path fill="#D387FF" fill-opacity=".05" d="M2000.5 1081.5v1H.5v-1z"/><path fill="#D387FF" fill-opacity=".05" d="M1123 0h1v2000h-1z"/><path fill="#D387FF" fill-opacity=".05" d="M2000.5 1122.5v1H.5v-1z"/><path fill="#D387FF" fill-opacity=".05" d="M1164 0h1v2000h-1z"/><path fill="#D387FF" fill-opacity=".05" d="M2000.5 1163.5v1H.5v-1z"/><path fill="#D387FF" fill-opacity=".05" d="M1205 0h1v2000h-1z"/><path fill="#D387FF" fill-opacity=".05" d="M2000.5 1204.5v1H.5v-1z"/><path fill="#D387FF" fill-opacity=".05" d="M1246 0h1v2000h-1z"/><path fill="#D387FF" fill-opacity=".05" d="M2000.5 1245.5v1H.5v-1z"/><path fill="#D387FF" fill-opacity=".05" d="M1287 0h1v2000h-1z"/><path fill="#D387FF" fill-opacity=".05" d="M2000.5 1286.5v1H.5v-1z"/><path fill="#D387FF" fill-opacity=".05" d="M1328 0h1v2000h-1z"/><path fill="#D387FF" fill-opacity=".05" d="M2000.5 1327.5v1H.5v-1z"/><path fill="#D387FF" fill-opacity=".05" d="M1369 0h1v2000h-1z"/><path fill="#D387FF" fill-opacity=".05" d="M2000.5 1368.5v1H.5v-1z"/><path fill="#D387FF" fill-opacity=".05" d="M1410 0h1v2000h-1z"/><path fill="#D387FF" fill-opacity=".05" d="M2000.5 1409.5v1H.5v-1z"/><path fill="#D387FF" fill-opacity=".05" d="M1451 0h1v2000h-1z"/><path fill="#D387FF" fill-opacity=".05" d="M2000.5 1450.5v1H.5v-1z"/><path fill="#D387FF" fill-opacity=".05" d="M1492 0h1v2000h-1z"/><path fill="#D387FF" fill-opacity=".05" d="M2000.5 1491.5v1H.5v-1z"/><path fill="#D387FF" fill-opacity=".05" d="M1533 0h1v2000h-1z"/><path fill="#D387FF" fill-opacity=".05" d="M2000.5 1532.5v1H.5v-1z"/><path fill="#D387FF" fill-opacity=".05" d="M1574 0h1v2000h-1z"/><path fill="#D387FF" fill-opacity=".05" d="M2000.5 1573.5v1H.5v-1z"/><path fill="#D387FF" fill-opacity=".05" d="M1615 0h1v2000h-1z"/><path fill="#D387FF" fill-opacity=".05" d="M2000.5 1614.5v1H.5v-1z"/><path fill="#D387FF" fill-opacity=".05" d="M1656 0h1v2000h-1z"/><path fill="#D387FF" fill-opacity=".05" d="M2000.5 1655.5v1H.5v-1z"/><path fill="#D387FF" fill-opacity=".05" d="M1697 0h1v2000h-1z"/><path fill="#D387FF" fill-opacity=".05" d="M2000.5 1696.5v1H.5v-1z"/><path fill="#D387FF" fill-opacity=".05" d="M1738 0h1v2000h-1z"/><path fill="#D387FF" fill-opacity=".05" d="M2000.5 1737.5v1H.5v-1z"/><path fill="#D387FF" fill-opacity=".05" d="M1779 0h1v2000h-1z"/><path fill="#D387FF" fill-opacity=".05" d="M2000.5 1778.5v1H.5v-1z"/><path fill="#D387FF" fill-opacity=".05" d="M1820 0h1v2000h-1z"/><path fill="#D387FF" fill-opacity=".05" d="M2000.5 1819.5v1H.5v-1z"/><path fill="#D387FF" fill-opacity=".05" d="M1861 0h1v2000h-1z"/><path fill="#D387FF" fill-opacity=".05" d="M2000.5 1860.5v1H.5v-1z"/><path fill="#D387FF" fill-opacity=".05" d="M1902 0h1v2000h-1z"/><path fill="#D387FF" fill-opacity=".05" d="M2000.5 1901.5v1H.5v-1z"/><path fill="#D387FF" fill-opacity=".05" d="M1943 0h1v2000h-1z"/><path fill="#D387FF" fill-opacity=".05" d="M2000.5 1942.5v1H.5v-1z"/><path fill="#D387FF" fill-opacity=".05" d="M1984 0h1v2000h-1z"/><path fill="#D387FF" fill-opacity=".05" d="M2000.5 1983.5v1H.5v-1z"/></svg>