<svg xmlns="http://www.w3.org/2000/svg" width="667" height="667" fill="none"><g fill="#D387FF" fill-opacity=".15" clip-path="url(#a)"><path d="M0 0h.548v1200H0zm44.424 0h.548v1200h-.548zm44.424 0h.548v1200h-.548zm44.424 0h.548v1200h-.548zm44.425 0h.548v1200h-.548zm44.424 0h.548v1200h-.548zm44.424 0h.548v1200h-.548zm44.424 0h.548v1200h-.548zm44.424 0h.548v1200h-.548zm44.424 0h.548v1200h-.548zm44.424 0h.548v1200h-.548zm44.425 0h.548v1200h-.548zm44.424 0h.548v1200h-.548z"/><path d="M0 666.911v-.548h1200v.548z"/><path d="M577.514 0h.548v1200h-.548z"/><path d="M0 622.486v-.548h1200v.548z"/><path d="M621.938 0h.548v1200h-.548z"/><path d="M0 578.062v-.548h1200v.548z"/><path d="M666.362 0h.548v1200h-.548z"/><path d="M0 533.638v-.548h1200v.548zm0-44.424v-.548h1200v.548zm0-44.424v-.548h1200v.548zm0-44.424v-.548h1200v.548zm0-44.424v-.548h1200v.548zm0-44.425v-.548h1200v.548zm0-44.424v-.548h1200v.548zm0-44.424v-.548h1200v.548zm0-44.424v-.548h1200v.548zm0-44.424v-.548h1200v.548zm0-44.424v-.548h1200v.548zm0-44.424v-.548h1200v.548zM0 .548V0h1200v.548z"/></g><defs><clipPath id="a"><path fill="#fff" d="M0 0h667v667H0z"/></clipPath></defs></svg>